<svg width="20" height="20" viewBox="0 0 20 20" fill="none" xmlns="http://www.w3.org/2000/svg">
<path d="M11.5267 13.8066C11.6989 13.8857 11.8927 13.9037 12.0765 13.8578C12.2602 13.8119 12.4229 13.7048 12.5376 13.5541L12.8334 13.1666C12.9887 12.9596 13.19 12.7916 13.4214 12.6759C13.6528 12.5602 13.908 12.5 14.1667 12.5H16.6667C17.1088 12.5 17.5327 12.6756 17.8453 12.9881C18.1578 13.3007 18.3334 13.7246 18.3334 14.1666V16.6666C18.3334 17.1087 18.1578 17.5326 17.8453 17.8451C17.5327 18.1577 17.1088 18.3333 16.6667 18.3333C12.6885 18.3333 8.87319 16.7529 6.06015 13.9399C3.2471 11.1268 1.66675 7.31154 1.66675 3.33329C1.66675 2.89127 1.84234 2.46734 2.1549 2.15478C2.46746 1.84222 2.89139 1.66663 3.33341 1.66663H5.83341C6.27544 1.66663 6.69936 1.84222 7.01193 2.15478C7.32449 2.46734 7.50008 2.89127 7.50008 3.33329V5.83329C7.50008 6.09203 7.43984 6.34722 7.32413 6.57865C7.20841 6.81007 7.04041 7.01138 6.83341 7.16663L6.44341 7.45913C6.29043 7.57594 6.1826 7.74211 6.13824 7.92942C6.09388 8.11672 6.11573 8.31361 6.20008 8.48663C7.33898 10.7998 9.2121 12.6706 11.5267 13.8066Z" stroke="#A81817" stroke-width="2" stroke-linecap="round" stroke-linejoin="round"/>
</svg>
