<svg width="20" height="20" viewBox="0 0 20 20" fill="none" xmlns="http://www.w3.org/2000/svg">
<path d="M16.6666 8.33329C16.6666 12.4941 12.0508 16.8275 10.5008 18.1658C10.3564 18.2744 10.1806 18.3331 9.99992 18.3331C9.81925 18.3331 9.64348 18.2744 9.49909 18.1658C7.94909 16.8275 3.33325 12.4941 3.33325 8.33329C3.33325 6.56518 4.03563 4.86949 5.28587 3.61925C6.53612 2.36901 8.23181 1.66663 9.99992 1.66663C11.768 1.66663 13.4637 2.36901 14.714 3.61925C15.9642 4.86949 16.6666 6.56518 16.6666 8.33329Z" stroke="#A81817" stroke-width="2" stroke-linecap="round" stroke-linejoin="round"/>
<path d="M9.99992 10.8333C11.3806 10.8333 12.4999 9.714 12.4999 8.33329C12.4999 6.95258 11.3806 5.83329 9.99992 5.83329C8.61921 5.83329 7.49992 6.95258 7.49992 8.33329C7.49992 9.714 8.61921 10.8333 9.99992 10.8333Z" stroke="#A81817" stroke-width="2" stroke-linecap="round" stroke-linejoin="round"/>
</svg>
