<svg width="28" height="28" viewBox="0 0 28 28" fill="none" xmlns="http://www.w3.org/2000/svg">
<path d="M16.3917 2.33333C18.7696 2.5839 20.9909 3.6386 22.688 5.32301C24.3852 7.00742 25.4565 9.22065 25.725 11.5967M16.3917 7C17.5391 7.22626 18.592 7.7922 19.4138 8.62436C20.2355 9.45652 20.7882 10.5165 21 11.6667M25.6667 19.74V23.24C25.668 23.5649 25.6014 23.8865 25.4713 24.1842C25.3411 24.4819 25.1502 24.7492 24.9108 24.9688C24.6713 25.1885 24.3887 25.3557 24.0809 25.4598C23.7731 25.5639 23.4469 25.6026 23.1233 25.5733C19.5333 25.1833 16.0848 23.9565 13.055 21.9917C10.2361 20.2004 7.84623 17.8105 6.055 14.9917C4.08331 11.9481 2.85629 8.48283 2.47334 4.87667C2.44418 4.55405 2.48252 4.22889 2.58592 3.9219C2.68932 3.6149 2.8555 3.33281 3.0739 3.09356C3.29229 2.85431 3.55811 2.66316 3.85443 2.53228C4.15074 2.40139 4.47107 2.33364 4.795 2.33333H8.295C8.86119 2.32776 9.41009 2.52826 9.83939 2.89746C10.2687 3.26665 10.5491 3.77936 10.6283 4.34C10.7761 5.46008 11.05 6.55985 11.445 7.61833C11.602 8.03591 11.6359 8.48974 11.5429 8.92603C11.4498 9.36232 11.2337 9.7628 10.92 10.08L9.43834 11.5617C11.0992 14.4825 13.5175 16.9009 16.4383 18.5617L17.92 17.08C18.2372 16.7663 18.6377 16.5502 19.074 16.4571C19.5103 16.3641 19.9641 16.398 20.3817 16.555C21.4402 16.95 22.5399 17.2239 23.66 17.3717C24.2267 17.4516 24.7443 17.7371 25.1143 18.1737C25.4843 18.6104 25.6809 19.1678 25.6667 19.74Z" stroke="white" stroke-width="2" stroke-linecap="round" stroke-linejoin="round"/>
</svg>
